<svg xmlns="http://www.w3.org/2000/svg" version="1.1" xmlns:xlink="http://www.w3.org/1999/xlink" xmlns:svgjs="http://svgjs.dev/svgjs" viewBox="0 0 600 600"><path d="M38.78031351468405 -4.643034591353512C2.1661430428568664 23.900270010951587 11.221260729446428 120.5538056154285 28.150393032048555 165.43569074662867C45.07952533465068 210.31757587782883 82.48109748265585 245.3569401362771 140.35510733029685 264.6482761958474C198.22911717793784 283.9396122554177 310.04012650550845 280.7900049149229 375.3944521178945 281.18370710405054C440.74877773028055 281.57740929317816 494.0952323506418 285.51442355505964 532.4810610046134 267.01048933061304C570.8668896585846 248.50655510616645 590.3550895283763 213.27033506425562 605.7094240417227 170.16010175737085C621.063758555069 127.04986845048609 684.2527361144766 37.679795926733235 624.6070680846915 8.349089489304447C564.9614000549063 -20.981616948124344 345.4732082913462 -3.6587828537589075 247.8354158630117 -5.824136867201901C150.19762343467715 -7.989490880644894 75.39448398651123 -33.18633919365861 38.78031351468405 -4.643034591353512C2.1661430428568664 23.900270010951587 11.221260729446428 120.5538056154285 28.150393032048555 165.43569074662867 " fill="url(&quot;#SvgjsLinearGradient1003&quot;)" transform="matrix(1.2151000792928481,0.23629501817198245,0.4946301262756231,-1.3817608277357178,-135.73534431992198,226.08632961856293)"/><defs><linearGradient id="SvgjsLinearGradient1003" gradientTransform="rotate(262, 0.5, 0.5)"><stop stop-color="hsl(184, 74%, 44%)" offset="0"/><stop stop-color="hsl(332, 87%, 70%)" offset="1"/></linearGradient></defs><path d="M-35.35074397644189 61.321358461520816C-71.96491444826907 89.86466306382592 -62.909796761679516 186.51819866830283 -45.98066445907739 231.400083799503C-29.051532156475258 276.28196893070304 8.350039991529911 311.3213331891513 66.2240498391709 330.6126692487216C124.0980596868119 349.9040053082919 235.9090690143825 346.75439796779705 301.26339462676856 347.1481001569247C366.6177202391546 347.5418023460523 419.96417485951594 351.47881660793377 458.3500035134873 332.9748823834872C496.7358321674586 314.4709481590406 516.224032037251 279.2347281171298 531.5783665505975 236.12449481024518C546.9327010639437 193.01426150336042 610.1216786233514 103.64418897960756 550.4760105935662 74.31348254217878C490.8303425637803 44.98277610474999 271.3421508002203 62.30561019911542 173.70435837188575 60.14025618567243C76.0665659435512 57.974902172229434 1.2634264953852963 32.77805385921572 -35.35074397644189 61.321358461520816C-71.96491444826907 89.86466306382592 -62.909796761679516 186.51819866830283 -45.98066445907739 231.400083799503 " fill-opacity="1" fill="none" opacity="1" stroke-opacity="0.4" stroke-width="9" stroke="#eb73af" transform="matrix(1.5508098277937508,0.30157897500350356,0.6312873104226245,-1.7635158682238359,-182.88031994482634,372.77974194849514)"/></svg>