<svg xmlns="http://www.w3.org/2000/svg" version="1.1" xmlns:xlink="http://www.w3.org/1999/xlink" xmlns:svgjs="http://svgjs.dev/svgjs" viewBox="0 0 600 600"><path d="M167.12603915698026 105.11810824213035C189.56698255704535 62.40157585280744 327.7559550301899 123.22834917840964 378.54335177905057 138.18897768793113C429.3307485279112 153.1496061974526 479.72443291511826 147.04723879632957 471.8504196501443 194.88187929925925C463.9764063851704 242.71651980218894 369.29139356778757 391.9291052514077 331.2992721892068 425.19682070550925C293.30715081062607 458.4645361596108 271.25989688403104 447.8346241010984 243.89769137865994 394.48817202386863C216.53548587328885 341.14171994663883 144.68509575691513 147.83464063145325 167.12603915698026 105.11810824213035C189.56698255704535 62.40157585280744 327.7559550301899 123.22834917840964 378.54335177905057 138.18897768793113 " fill="url(&quot;#SvgjsLinearGradient1001&quot;)"/><path d="M85.45224188208817 97.47099583946368C107.89318528215327 54.754463450140776 246.08215775529783 115.58123677574298 296.8695545041585 130.54186528526446C347.65695125301914 145.50249379478595 398.05063564022623 139.4001263936629 390.17662237525224 187.2347668965926C382.30260911027835 235.06940739952228 287.6175962928955 384.281992848741 249.62547491431474 417.5497083028426C211.633353535734 450.81742375694415 189.58609960913896 440.18751169843176 162.22389410376786 386.84105962120196C134.86168859839677 333.49460754397217 63.01129848202305 140.1875282287866 85.45224188208817 97.47099583946368C107.89318528215327 54.754463450140776 246.08215775529783 115.58123677574298 296.8695545041585 130.54186528526446 " fill-opacity="0.36" fill="url(&quot;#SvgjsLinearGradient1002&quot;)" opacity="1" stroke-opacity="1" stroke-width="0" stroke="hsl(340, 45%, 30%)" transform="matrix(1.0969943906250001,0,0,1.0969943906250001,55.82198233205662,46.84538131783313)"/><defs><radialGradient id="SvgjsRadialGradient1000"><stop stop-color="hsl(340, 45%, 50%)" offset="0"/><stop stop-color="hsl(340, 45%, 80%)" offset="1"/></radialGradient><linearGradient id="SvgjsLinearGradient1001" gradientTransform="rotate(269, 0.5, 0.5)"><stop stop-color="hsl(180, 69%, 40%)" offset="0"/><stop stop-color="hsl(180, 69%, 90%)" offset="1"/></linearGradient><linearGradient id="SvgjsLinearGradient1002" gradientTransform="rotate(80, 0.5, 0.5)"><stop stop-color="hsl(340, 45%, 50%)" offset="0"/><stop stop-color="hsl(340, 45%, 80%)" offset="1"/></linearGradient></defs></svg>