<svg xmlns="http://www.w3.org/2000/svg" version="1.1" xmlns:xlink="http://www.w3.org/1999/xlink" xmlns:svgjs="http://svgjs.dev/svgjs" viewBox="0 0 600 600"><path d="M3.1872196908491333 38.663743955983165C-15.710416722725085 106.38027348428314 35.27383080280795 407.36449939319823 56.33682258086378 430.7896938156023C77.39981435891961 454.2148882380062 84.092732818494 237.4826221298113 129.5651703591841 179.214910490407C175.0376078998742 120.9471988510027 322.4785360411502 106.97082295327728 329.1714478250044 81.18342397917652C335.8643596088586 55.39602500507577 224.05334575133497 31.577129983001395 169.7226410623091 24.4905166458025C115.39193637328322 17.403903308603606 22.084856104423352 -29.052785572316807 3.1872196908491333 38.663743955983165C-15.710416722725085 106.38027348428314 35.27383080280795 407.36449939319823 56.33682258086378 430.7896938156023 " fill="url(&quot;#SvgjsLinearGradient1001&quot;)" transform="matrix(1.6288946267774422,0,0,1.6288946267774422,-107.08066258698148,-131.72243458159898)"/><path d="M-91.12137176377303 -71.64619601620524C-110.01900817734725 -3.9296664879052656 -59.03476065181421 297.0545594210099 -37.97176887375838 320.4797538434139C-16.908777095702547 343.9049482658179 -10.21585863612816 127.17268215762289 35.256578904561934 68.90497051821859C80.72901644525203 10.637258878814293 228.16994458652806 -3.339117018911125 234.86285637038225 -29.12651599301188C241.55576815423643 -54.91391496711263 129.7447542967128 -78.732809989187 75.41404960768693 -85.8194233263859C21.083344918661055 -92.9060366635848 -72.22373535019881 -139.36272554450522 -91.12137176377303 -71.64619601620524C-110.01900817734725 -3.9296664879052656 -59.03476065181421 297.0545594210099 -37.97176887375838 320.4797538434139 " fill-opacity="1" fill="url(&quot;#SvgjsLinearGradient1000&quot;)" opacity="1" stroke-opacity="1" stroke-width="0" stroke="hsl(340, 45%, 30%)" transform="matrix(-1.5513282159785167,5.551115123125783e-16,-6.661338147750939e-16,-1.5513282159785167,550.6953660725258,561.7536618040463)"/><defs><linearGradient id="SvgjsLinearGradient1000" gradientTransform="rotate(33, 0.5, 0.5)"><stop stop-color="hsl(37, 99%, 67%)" offset="0"/><stop stop-color="hsl(316, 73%, 52%)" offset="1"/></linearGradient><linearGradient id="SvgjsLinearGradient1001" gradientTransform="rotate(45, 0.5, 0.5)"><stop stop-color="hsl(37, 99%, 67%)" offset="0"/><stop stop-color="hsl(316, 73%, 52%)" offset="1"/></linearGradient><radialGradient id="SvgjsRadialGradient1002" r="0.5"><stop stop-color="hsl(300, 66%, 40%)" offset="0"/><stop stop-color="hsla(300, 66%, 40%,0%)" offset="1"/></radialGradient></defs></svg>