<svg xmlns="http://www.w3.org/2000/svg" version="1.1" xmlns:xlink="http://www.w3.org/1999/xlink" viewBox="0 0 700 700" style="overflow: hidden; display: block;" width="700" height="700"><defs><linearGradient id="two-5" x1="350" y1="-350" x2="350" y2="350" spreadMethod="pad" gradientUnits="userSpaceOnUse"><stop offset="0%" stop-color="hsl(180, 69%, 40%)" stop-opacity="1"></stop><stop offset="100%" stop-color="hsl(180, 69%, 60%)" stop-opacity="1"></stop></linearGradient></defs><g id="two-0" transform="matrix(1 0 0 1 0 0)" opacity="1"><path transform="matrix(1 0 0 1 350 350)" id="two-4" d="M 277.26642 81.412766 C 252.127462 126.414093 147.376659 33.479847 121.104693 77.82926 C 84.959766 138.845111 276.736743 211.752269 228.656387 263.883538 C 194.454872 300.966632 138.513587 182.630611 90.565034 198.309763 C 58.226989 208.884287 72.459545 274.788079 41.554207 289.015862 C 16.835123 300.395701 -12.049024 274.983622 -39.053317 271.62178 C -66.462547 268.209526 -97.22845 279.357539 -122.700956 268.677614 C -148.051579 258.048791 -160.360227 226.738255 -183.145765 211.361479 C -208.764784 194.072536 -245.904192 193.710054 -268.337506 172.450043 C -290.285027 151.650416 -320.312145 119.976967 -310.824479 91.266301 C -289.113197 25.565699 -127.793325 68.95599 -122.047005 0 C -119.147587 -34.793105 -189.576937 -31.751701 -208.362508 -61.180753 C -223.254733 -84.510576 -236.894224 -119.418274 -223.549269 -143.666392 C -210.951414 -166.557008 -167.339055 -153.588896 -150.094368 -173.218134 C -127.775601 -198.623083 -157.595137 -265.916123 -124.410361 -272.42069 C -67.172068 -283.64 -76.376553 -121.421139 -18.791588 -130.698365 C 49.586419 -141.714405 -21.186433 -320.411124 47.426189 -329.856395 C 83.380638 -334.805914 76.582372 -255.002681 109.034004 -238.751167 C 139.183266 -223.65266 191.096045 -270.764328 211.095593 -243.617302 C 240.427951 -203.802088 176.97675 -149.186117 159.913035 -102.769868 C 152.301283 -82.06459 128.157669 -60.488548 136.612951 -40.113182 C 148.835125 -10.660435 200.383173 -20.834208 224.524044 -0.000001 C 248.758285 20.914789 292.878059 53.466324 277.26642 81.412766 Z " fill="url(#two-5)" stroke="undefined" stroke-width="1" stroke-opacity="1" fill-opacity="1" visibility="visible" stroke-linecap="butt" stroke-linejoin="miter" stroke-miterlimit="4"></path></g></svg>